<svg id="visual" viewBox="0 0 960 540" width="960" height="540" xmlns="http://www.w3.org/2000/svg" xmlns:xlink="http://www.w3.org/1999/xlink" version="1.1"><rect x="0" y="0" width="960" height="540" fill="#444343"></rect><path d="M0 359L22.8 355.5C45.7 352 91.3 345 137 351.5C182.7 358 228.3 378 274 381.3C319.7 384.7 365.3 371.3 411.2 361.8C457 352.3 503 346.7 548.8 347C594.7 347.3 640.3 353.7 686 354.5C731.7 355.3 777.3 350.7 823 347.8C868.7 345 914.3 344 937.2 343.5L960 343L960 541L937.2 541C914.3 541 868.7 541 823 541C777.3 541 731.7 541 686 541C640.3 541 594.7 541 548.8 541C503 541 457 541 411.2 541C365.3 541 319.7 541 274 541C228.3 541 182.7 541 137 541C91.3 541 45.7 541 22.8 541L0 541Z" fill="#7ae340"></path><path d="M0 363L22.8 367.5C45.7 372 91.3 381 137 386.7C182.7 392.3 228.3 394.7 274 389.5C319.7 384.3 365.3 371.7 411.2 370.2C457 368.7 503 378.3 548.8 387.7C594.7 397 640.3 406 686 413.2C731.7 420.3 777.3 425.7 823 417.2C868.7 408.7 914.3 386.3 937.2 375.2L960 364L960 541L937.2 541C914.3 541 868.7 541 823 541C777.3 541 731.7 541 686 541C640.3 541 594.7 541 548.8 541C503 541 457 541 411.2 541C365.3 541 319.7 541 274 541C228.3 541 182.7 541 137 541C91.3 541 45.7 541 22.8 541L0 541Z" fill="#66bc36"></path><path d="M0 456L22.8 454.5C45.7 453 91.3 450 137 446.3C182.7 442.7 228.3 438.3 274 429.7C319.7 421 365.3 408 411.2 404C457 400 503 405 548.8 409.7C594.7 414.3 640.3 418.7 686 423.7C731.7 428.7 777.3 434.3 823 433.7C868.7 433 914.3 426 937.2 422.5L960 419L960 541L937.2 541C914.3 541 868.7 541 823 541C777.3 541 731.7 541 686 541C640.3 541 594.7 541 548.8 541C503 541 457 541 411.2 541C365.3 541 319.7 541 274 541C228.3 541 182.7 541 137 541C91.3 541 45.7 541 22.8 541L0 541Z" fill="#52972c"></path><path d="M0 449L22.8 454.3C45.7 459.7 91.3 470.3 137 469.7C182.7 469 228.3 457 274 455.7C319.7 454.3 365.3 463.7 411.2 462.5C457 461.3 503 449.7 548.8 445C594.7 440.3 640.3 442.7 686 443C731.7 443.3 777.3 441.7 823 447C868.7 452.3 914.3 464.7 937.2 470.8L960 477L960 541L937.2 541C914.3 541 868.7 541 823 541C777.3 541 731.7 541 686 541C640.3 541 594.7 541 548.8 541C503 541 457 541 411.2 541C365.3 541 319.7 541 274 541C228.3 541 182.7 541 137 541C91.3 541 45.7 541 22.8 541L0 541Z" fill="#3f7422"></path><path d="M0 508L22.8 507.2C45.7 506.3 91.3 504.7 137 504.8C182.7 505 228.3 507 274 508.8C319.7 510.7 365.3 512.3 411.2 510.8C457 509.3 503 504.7 548.8 503.3C594.7 502 640.3 504 686 504.3C731.7 504.7 777.3 503.3 823 502.7C868.7 502 914.3 502 937.2 502L960 502L960 541L937.2 541C914.3 541 868.7 541 823 541C777.3 541 731.7 541 686 541C640.3 541 594.7 541 548.8 541C503 541 457 541 411.2 541C365.3 541 319.7 541 274 541C228.3 541 182.7 541 137 541C91.3 541 45.7 541 22.8 541L0 541Z" fill="#2d5218"></path></svg>