<svg id="visual" viewBox="0 0 900 600" width="900" height="600" xmlns="http://www.w3.org/2000/svg" xmlns:xlink="http://www.w3.org/1999/xlink" version="1.1"><rect x="0" y="0" width="900" height="600" fill="#444343"></rect><path d="M0 399L21.5 395.2C43 391.3 86 383.7 128.8 391C171.7 398.3 214.3 420.7 257.2 424.3C300 428 343 413 385.8 402.3C428.7 391.7 471.3 385.3 514.2 385.7C557 386 600 393 642.8 394C685.7 395 728.3 390 771.2 387C814 384 857 383 878.5 382.5L900 382L900 601L878.5 601C857 601 814 601 771.2 601C728.3 601 685.7 601 642.8 601C600 601 557 601 514.2 601C471.3 601 428.7 601 385.8 601C343 601 300 601 257.2 601C214.3 601 171.7 601 128.8 601C86 601 43 601 21.5 601L0 601Z" fill="#7ae340"></path><path d="M0 403L21.5 408.2C43 413.3 86 423.7 128.8 430C171.7 436.3 214.3 438.7 257.2 432.8C300 427 343 413 385.8 411.3C428.7 409.7 471.3 420.3 514.2 430.7C557 441 600 451 642.8 459C685.7 467 728.3 473 771.2 463.7C814 454.3 857 429.7 878.5 417.3L900 405L900 601L878.5 601C857 601 814 601 771.2 601C728.3 601 685.7 601 642.8 601C600 601 557 601 514.2 601C471.3 601 428.7 601 385.8 601C343 601 300 601 257.2 601C214.3 601 171.7 601 128.8 601C86 601 43 601 21.5 601L0 601Z" fill="#66bc36"></path><path d="M0 507L21.5 505.3C43 503.7 86 500.3 128.8 496.2C171.7 492 214.3 487 257.2 477.3C300 467.7 343 453.3 385.8 449C428.7 444.7 471.3 450.3 514.2 455.5C557 460.7 600 465.3 642.8 470.8C685.7 476.3 728.3 482.7 771.2 481.8C814 481 857 473 878.5 469L900 465L900 601L878.5 601C857 601 814 601 771.2 601C728.3 601 685.7 601 642.8 601C600 601 557 601 514.2 601C471.3 601 428.7 601 385.8 601C343 601 300 601 257.2 601C214.3 601 171.7 601 128.8 601C86 601 43 601 21.5 601L0 601Z" fill="#52972c"></path><path d="M0 499L21.5 505C43 511 86 523 128.8 522.2C171.7 521.3 214.3 507.7 257.2 506C300 504.3 343 514.7 385.8 513.5C428.7 512.3 471.3 499.7 514.2 494.7C557 489.7 600 492.3 642.8 492.7C685.7 493 728.3 491 771.2 496.8C814 502.7 857 516.3 878.5 523.2L900 530L900 601L878.5 601C857 601 814 601 771.2 601C728.3 601 685.7 601 642.8 601C600 601 557 601 514.2 601C471.3 601 428.7 601 385.8 601C343 601 300 601 257.2 601C214.3 601 171.7 601 128.8 601C86 601 43 601 21.5 601L0 601Z" fill="#3f7422"></path><path d="M0 565L21.5 564C43 563 86 561 128.8 561.2C171.7 561.3 214.3 563.7 257.2 565.7C300 567.7 343 569.3 385.8 567.7C428.7 566 471.3 561 514.2 559.5C557 558 600 560 642.8 560.3C685.7 560.7 728.3 559.3 771.2 558.7C814 558 857 558 878.5 558L900 558L900 601L878.5 601C857 601 814 601 771.2 601C728.3 601 685.7 601 642.8 601C600 601 557 601 514.2 601C471.3 601 428.7 601 385.8 601C343 601 300 601 257.2 601C214.3 601 171.7 601 128.8 601C86 601 43 601 21.5 601L0 601Z" fill="#2d5218"></path></svg>